Coordinates

Units are S.I. units (second, meters, Newtons, ...)
If the header above contains a line with 'inDegrees', this indicates whether rotational values are in degrees (yes) or radians (no).

inDegrees=no
nColumns=21
nRows=17
DataType=double
version=3
OpenSimVersion=4.6-2026-03-31-d6972f9e6
endheader
time	/jointset/ground_pelvis/pelvis_tilt/value	/jointset/ground_pelvis/pelvis_list/value	/jointset/ground_pelvis/pelvis_rotation/value	/jointset/ground_pelvis/pelvis_tx/value	/jointset/ground_pelvis/pelvis_ty/value	/jointset/ground_pelvis/pelvis_tz/value	/jointset/hip_r/hip_flexion_r/value	/jointset/hip_r/hip_adduction_r/value	/jointset/hip_r/hip_rotation_r/value	/jointset/walker_knee_r/knee_angle_r/value	/jointset/patellofemoral_r/knee_angle_r_beta/value	/jointset/ankle_r/ankle_angle_r/value	/jointset/subtalar_r/subtalar_angle_r/value	/jointset/hip_l/hip_flexion_l/value	/jointset/hip_l/hip_adduction_l/value	/jointset/hip_l/hip_rotation_l/value	/jointset/walker_knee_l/knee_angle_l/value	/jointset/patellofemoral_l/knee_angle_l_beta/value	/jointset/ankle_l/ankle_angle_l/value	/jointset/subtalar_l/subtalar_angle_l/value
142.496	-0.09491807321709748	-0.220594793201865	1.48590367777853	0.8026887487775146	0.9779863812294208	-1.194823742180394	0.5306969934530321	-0.1589180291948044	0.07162872728053096	1.170348998403389	1.170348997960749	-0.06465496891310835	-0.5918410295646004	0.1342848789700967	0.1219926671517186	0.0786944240369514	0.4140972605186915	0.414097259498486	0.2058761463690963	-0.396024071076346
142.5	-0.08643470112326364	-0.2235215788225318	1.47701116233193	0.803858686547266	0.9800631340575094	-1.195356591177906	0.5386058028639018	-0.1420078459327328	0.07644145018480357	1.140101694757407	1.140101694444659	-0.06278249321605683	-0.5884725398273517	0.1178346217553524	0.1120797238799247	0.0751563403085814	0.3942449325038878	0.3942449314871649	0.1818161765957272	-0.4018130884011303
142.504	-0.07794749006968384	-0.2267371901653237	1.468189979000815	0.8050454317946995	0.9821325386728605	-1.195933201060916	0.545866112993129	-0.1251085171615474	0.08103229376046633	1.108199761041782	1.108199760864051	-0.06154879098877675	-0.5857760049638798	0.1018490091193553	0.1022889399186425	0.07118694348055316	0.3746919043693943	0.3746919033622109	0.1564116857641797	-0.4073608506870728
142.508	-0.06946725496894712	-0.2301492056956715	1.459535454904644	0.8062410256812811	0.984195073545662	-1.196553750194751	0.5523651717034974	-0.1082925874242206	0.0853512028192841	1.074671606426369	1.074671606382639	-0.06091656738381267	-0.5837188073516766	0.08627368812151621	0.09263810995488805	0.06678350929286749	0.3555320239842548	0.3555320229929233	0.1299113117847749	-0.412416007922963
142.512	-0.06101280370083204	-0.2336629132463665	1.451131939517187	0.8074374336051187	0.986251086433903	-1.197217901618486	0.5580034589544518	-0.09163794084722802	0.0893524957282766	1.039561862333525	1.039561862416471	-0.06082760722711144	-0.5822200767863408	0.07105610279886566	0.08315107480309322	0.06194021615380934	0.3368588609569866	0.3368588599879775	0.1025764400927275	-0.4167346315053198
142.516	-0.05261225222723551	-0.2371850144167356	1.443051157716435	0.8086267268930378	0.988300352029718	-1.197924660407547	0.5626995400359855	-0.07522765792926869	0.09299561849405957	1.002934715709308	1.002934715906017	-0.06120264254286107	-0.5811489349880504	0.05614996781911134	0.0738589564696952	0.05664873778098084	0.318767004590357	0.3187670036503484	0.0746743055824229	-0.4200884120045565
142.52	-0.04430352690926199	-0.2406267874571464	1.435351341804856	0.8098012612975157	0.9903417237136748	-1.198672272828992	0.5663936269388519	-0.05914924318907133	0.09624546055042543	0.9648766221249749	0.9648766224185806	-0.06194226746346432	-0.5803251078471858	0.04151881877426505	0.06480051648129179	0.05089924488853498	0.3013532202905614	0.3013532193868094	0.04647072542581138	-0.4222726423020832
142.524	-0.03613414604860346	-0.243906793779377	1.428077093230233	0.8109538462636753	0.9923728691381677	-1.199458162769727	0.5690499973202749	-0.04349336086520696	0.09907236339093163	0.9254983255833661	0.9254983259554015	-0.06292889118180618	-0.5795220221100197	0.0271387870046229	0.05602168869106355	0.04468162791347381	0.2847175048097623	0.2847175039507289	0.01822295870337332	-0.4231132642414534
142.528	-0.02816037009322465	-0.246953167958558	1.421259872842711	0.8120778992614086	0.9943900835156347	-1.200278902991277	0.570658379177798	-0.02835220151578339	0.1014519788533281	0.8849361075913504	0.8849361080243932	-0.06402971129117928	-0.5784724008492683	0.01300067082958152	0.04757437761110641	0.03798681578902158	0.268963998700229	0.2689639978962887	-0.009827064484375765	-0.4224727154078698
142.532	-0.02044578195677689	-0.249705464704446	1.414918986327449	0.8131675814399293	0.9963881809949532	-1.201130221641669	0.5712343298084653	-0.01381756183842469	0.1033651277705488	0.8433521751282316	0.8433521756082712	-0.06510067847429034	-0.5768762903085509	-0.0008887331496571294	0.03951461971451608	0.03080811230262474	0.2542016256822243	0.2542016249462357	-0.03745903513771262	-0.4202546111947031
142.536	-0.01305936026682878	-0.2521160177709601	1.409062934626127	0.8142179111215706	0.9983604651891954	-1.202007044217775	0.5708186178469083	2.128344058460176e-05	0.1047977758218959	0.8009341094398285	0.8009341099577443	-0.06599138151311477	-0.5744113564268981	-0.01450610196844782	0.03190022266164504	0.02314249541340496	0.2405443108295821	0.2405443101770408	-0.06447993741134386	-0.4164073054993084
142.54	-0.006073131036730324	-0.2541507729096212	1.403691018343823	0.8152248504441686	1.000298777464355	-1.202903569771754	0.5694756327588916	0.01307981932336794	0.1057412041581839	0.7578933306077891	0.7578933311595896	-0.06655071717561115	-0.5707451764200635	-0.02781189910792206	0.02478802562011889	0.01499184206359185	0.2281106707718426	0.2281106702203088	-0.09072889617897828	-0.4109262802562859
142.544	0.0004404865957777639	-0.2557895810623244	1.398795098342424	0.8161853602104134	1.002193617552848	-1.203813379045398	0.5672908853171187	0.02528052197818092	0.1061924176323463	0.7144625767103978	0.7144625772963435	-0.06663314162202409	-0.5655491404402087	-0.04075151618251638	0.01823095283041199	0.006364058439862586	0.2170231238274656	0.2170231233951498	-0.1160809823834159	-0.4038552623878255
142.548	0.006411501206715267	-0.2570259643637968	1.394361419061274	0.8170974195560822	1.004034327493776	-1.204729570982698	0.5643677063898185	0.03655496408252067	0.1061547976173667	0.6708924446832059	0.6708924453062465	-0.06610525585992559	-0.558513499883631	-0.0532571855961748	0.01227505330731168	-0.002725886250268763	0.2074064066911726	0.2074064063949034	-0.1404498128438957	-0.395286021299868
142.552	0.01177518740080079	-0.2578663797327785	1.390372407426443	0.8179600090928456	1.005809328720906	-1.205644922640299	0.5608232777392553	0.04684568317615662	0.1056389697815927	0.6274470894376297	0.6274470901016664	-0.06485246423506084	-0.5493630512368671	-0.0652505836124449	0.00695672699294744	-0.012255000080806	0.1993855059278959	0.1993855057809379	-0.1637888805867049	-0.3853569281340156
142.556	0.01647479573282251	-0.2583290196058935	1.386808371449578	0.8187730581364917	1.00750640102773	-1.206552066314676	0.5567841535469035	0.05610772184405678	0.1046638248675609	0.5843992280143628	0.5843992287228367	-0.06278541839875025	-0.5378728622401064	-0.07664601759314361	0.002300325034091334	-0.02219135541069808	0.1930830440152681	0.1930830440254364	-0.1860916182215465	-0.3742504355693461
142.56	0.02046400152291664	-0.2584422227999397	1.383649030829819	0.8195373593453452	1.00911298907998	-1.207443676835125	0.5523814736166474	0.06430978006460682	0.1032576032119479	0.5420246464179924	0.5420246471731628	-0.05984589854542734	-0.5238833083053182	-0.08735403881224225	-0.0016837236385318	-0.03249323911147934	0.1886162190320202	0.1886162192002992	-0.2073901838682557	-0.3621895978389272
